<svg width="432" height="100" viewBox="0 0 432 100" fill="none" xmlns="http://www.w3.org/2000/svg">
<rect width="100" height="100" fill="#A62B28"/>
<path d="M66.6667 42.0666C66.6679 41.8473 66.6259 41.6298 66.543 41.4268C66.46 41.2237 66.3378 41.039 66.1833 40.8833L59.1167 33.8166C58.9609 33.6621 58.7762 33.5399 58.5732 33.457C58.3701 33.3741 58.1527 33.332 57.9333 33.3333C57.714 33.332 57.4966 33.3741 57.2935 33.457C57.0904 33.5399 56.9057 33.6621 56.75 33.8166L52.0333 38.5333L33.8167 56.7499C33.6622 56.9057 33.54 57.0904 33.457 57.2934C33.3741 57.4965 33.3321 57.7139 33.3333 57.9333V64.9999C33.3333 65.442 33.5089 65.8659 33.8215 66.1785C34.134 66.491 34.558 66.6666 35 66.6666H42.0667C42.2999 66.6793 42.5332 66.6428 42.7514 66.5596C42.9696 66.4763 43.1679 66.3481 43.3333 66.1833L61.45 47.9666L66.1833 43.3333C66.3355 43.1717 66.4594 42.9858 66.55 42.7833C66.5661 42.6504 66.5661 42.5161 66.55 42.3833C66.5578 42.3057 66.5578 42.2275 66.55 42.1499L66.6667 42.0666ZM41.3833 63.3333H36.6667V58.6166L53.2167 42.0666L57.9333 46.7833L41.3833 63.3333ZM60.2833 44.4333L55.5667 39.7166L57.9333 37.3666L62.6333 42.0666L60.2833 44.4333Z" fill="white"/>
<path d="M141.562 61.7031L142.125 57.9531H146.922L146.531 61.6094C146.531 63.7969 147.427 64.8906 149.219 64.8906C150.562 64.9115 151.234 63.7865 151.234 61.5156V59.2188C151.234 57.2396 150.495 56.25 149.016 56.25H145.688V52.625H147.688C149.938 52.0833 151.062 51.0521 151.062 49.5312C151.062 47.9062 149.859 45.9531 147.453 43.6719H153.703C155.182 45.7135 155.922 47.6667 155.922 49.5312C155.922 51.375 154.995 52.8438 153.141 53.9375C155.182 55.0938 156.203 56.8542 156.203 59.2188V61.5156C156.214 63.8281 155.635 65.5573 154.469 66.7031C153.302 67.849 151.542 68.4219 149.188 68.4219C144.115 68.4219 141.573 66.1823 141.562 61.7031ZM159.344 61.5469L159.688 58.2812H164.547L164.234 62.4062C164.234 64.0833 165.026 64.9167 166.609 64.9062C168.193 64.9167 168.984 64.099 168.984 62.4531V59.5625C169.005 57.4688 168.531 56.4219 167.562 56.4219H164.531V52.75H166.797C168.182 52.7708 168.875 51.3021 168.875 48.3438C168.875 47.2292 168.12 46.6719 166.609 46.6719C165.443 46.6719 164.854 47.3281 164.844 48.6406L165.109 50.9375H160.219L159.938 48.875C159.938 45.0833 162.161 43.1875 166.609 43.1875C171.432 43.1875 173.844 45.1302 173.844 49.0156C173.844 50.9219 172.833 52.6719 170.812 54.2656C172.906 55.151 173.948 56.9271 173.938 59.5938V61.4844C173.938 66.1094 171.599 68.4219 166.922 68.4219C161.87 68.4219 159.344 66.1302 159.344 61.5469ZM177.406 51.75C177.406 46.0417 179.891 43.1875 184.859 43.1875C189.828 43.1875 192.312 46.0573 192.312 51.7969C192.312 54.474 191.734 57.5365 190.578 60.9844H185.5C186.729 57.6719 187.344 54.6094 187.344 51.7969C187.344 48.3906 186.516 46.6875 184.859 46.6875C183.203 46.6875 182.375 48.4062 182.375 51.8438C182.375 54.6458 182.979 57.6979 184.188 61H179.109C178.547 59.25 178.12 57.6094 177.828 56.0781C177.547 54.5469 177.406 53.1042 177.406 51.75ZM195.438 51.7031C195.438 49.7031 195.766 47.7917 196.422 45.9688C197.078 44.1354 198.068 42.3594 199.391 40.6406C201.943 37.349 205.943 35.2865 211.391 34.4531V38.4844C209.672 38.5781 208.036 39.0312 206.484 39.8438C204.943 40.6562 203.51 41.7708 202.188 43.1875H202.203C204.339 43.1875 205.943 43.8906 207.016 45.2969C208.099 43.8906 209.635 43.1875 211.625 43.1875C216.312 43.1875 218.656 46.026 218.656 51.7031C218.656 54.6615 217.599 57.7552 215.484 60.9844H209.156C212.177 57.7552 213.688 54.6615 213.688 51.7031C213.677 48.3594 212.948 46.6875 211.5 46.6875C210.115 46.6875 209.422 48.1667 209.422 51.125V54.7031H204.656V51.125C204.667 48.1667 203.99 46.6875 202.625 46.6875C201.146 46.6875 200.406 48.3594 200.406 51.7031C200.406 54.6719 201.922 57.7708 204.953 61H198.453C196.443 57.7083 195.438 54.6094 195.438 51.7031ZM221.781 51.75C221.781 46.0417 224.266 43.1875 229.234 43.1875C234.203 43.1875 236.688 46.0573 236.688 51.7969C236.688 54.474 236.109 57.5365 234.953 60.9844H229.875C231.104 57.6719 231.719 54.6094 231.719 51.7969C231.719 48.3906 230.891 46.6875 229.234 46.6875C227.578 46.6875 226.75 48.4062 226.75 51.8438C226.75 54.6458 227.354 57.6979 228.562 61H223.484C222.922 59.25 222.495 57.6094 222.203 56.0781C221.922 54.5469 221.781 53.1042 221.781 51.75ZM240.281 53.0156V34.8125H245.094V53.7969C245.094 56.5677 245.969 57.9531 247.719 57.9531C249.188 57.9531 249.922 56.6406 249.922 54.0156C249.922 51.4531 249.542 49.6667 248.781 48.6562C248.031 47.6354 247.651 46.3854 247.641 44.9062L247.75 41.7031H252.844L252.328 44.8906C252.349 46.0677 252.776 47.349 253.609 48.7344C254.453 50.1094 254.875 51.6094 254.875 53.2344C254.875 58.7135 252.49 61.4531 247.719 61.4531C242.76 61.4531 240.281 58.6406 240.281 53.0156ZM269.156 53.875L269.672 50.4688H274.578L274.047 53.9531C274.068 56.6198 274.88 57.9531 276.484 57.9531C278.026 57.9531 278.797 56.6562 278.797 54.0625C278.797 52.1458 277.844 50.3021 275.938 48.5312C274.042 46.7604 273.094 44.5312 273.094 41.8438H278.156C278.167 43.8021 279.099 45.6667 280.953 47.4375C282.818 49.1979 283.75 51.4062 283.75 54.0625C283.75 58.9896 281.312 61.4531 276.438 61.4531C271.583 61.4531 269.156 58.9271 269.156 53.875ZM286.875 61.5469L287.219 58.2812H292.078L291.766 62.4062C291.766 64.0833 292.557 64.9167 294.141 64.9062C295.724 64.9167 296.516 64.099 296.516 62.4531V59.5625C296.536 57.4688 296.062 56.4219 295.094 56.4219H292.062V52.75H294.328C295.714 52.7708 296.406 51.3021 296.406 48.3438C296.406 47.2292 295.651 46.6719 294.141 46.6719C292.974 46.6719 292.385 47.3281 292.375 48.6406L292.641 50.9375H287.75L287.469 48.875C287.469 45.0833 289.693 43.1875 294.141 43.1875C298.964 43.1875 301.375 45.1302 301.375 49.0156C301.375 50.9219 300.365 52.6719 298.344 54.2656C300.438 55.151 301.479 56.9271 301.469 59.5938V61.4844C301.469 66.1094 299.13 68.4219 294.453 68.4219C289.401 68.4219 286.875 66.1302 286.875 61.5469ZM304.938 56.0312C304.938 49.1667 307.703 45.0729 313.234 43.75L312.094 39.5469H317.156L316.016 43.7969C319.047 44.4427 321.172 45.7917 322.391 47.8438C323.609 49.8854 324.219 52.6458 324.219 56.125C324.219 57.7292 324.01 59.2344 323.594 60.6406C323.177 62.0365 322.339 63.6823 321.078 65.5781C319.828 67.474 317.682 68.4219 314.641 68.4219C311.568 68.4219 309.182 67.1823 307.484 64.7031C305.786 62.2344 304.938 59.3438 304.938 56.0312ZM309.906 56.0312C309.896 59.8229 310.354 62.2448 311.281 63.2969C312.219 64.3594 313.333 64.8906 314.625 64.8906C315.792 64.8906 316.87 64.3854 317.859 63.375C318.849 62.3646 319.344 59.9167 319.344 56.0312C319.344 53.5104 319.203 51.6667 318.922 50.5C318.651 49.3333 317.688 48.3385 316.031 47.5156L317.125 55.7812H312.141L313.219 47.5156C311.5 48.3281 310.516 49.3073 310.266 50.4531C310.026 51.5885 309.906 53.4479 309.906 56.0312ZM327.344 51.5312C327.344 45.9688 329.641 43.1875 334.234 43.1875C336.255 43.1875 337.792 43.8281 338.844 45.1094C339.948 43.8281 341.474 43.1875 343.422 43.1875C347.995 43.1875 350.276 45.9688 350.266 51.5312C350.276 54.5833 349.234 57.7396 347.141 61H341.266C343.953 57.6771 345.297 54.5208 345.297 51.5312C345.286 48.2917 344.651 46.6719 343.391 46.6719C341.911 46.6719 341.172 47.4375 341.172 48.9688V53.7031H336.438V48.9688C336.438 47.4375 335.698 46.6719 334.219 46.6719C332.948 46.6719 332.312 48.2917 332.312 51.5312C332.302 54.3646 333.62 57.526 336.266 61.0156H330.422C328.37 57.7969 327.344 54.6354 327.344 51.5312ZM353.406 51.7031C353.406 49.7031 353.734 47.7917 354.391 45.9688C355.047 44.1354 356.036 42.3594 357.359 40.6406C359.911 37.349 363.911 35.2865 369.359 34.4531V38.4844C367.641 38.5781 366.005 39.0312 364.453 39.8438C362.911 40.6562 361.479 41.7708 360.156 43.1875H360.172C362.307 43.1875 363.911 43.8906 364.984 45.2969C366.068 43.8906 367.604 43.1875 369.594 43.1875C374.281 43.1875 376.625 46.026 376.625 51.7031C376.625 54.6615 375.568 57.7552 373.453 60.9844H367.125C370.146 57.7552 371.656 54.6615 371.656 51.7031C371.646 48.3594 370.917 46.6875 369.469 46.6875C368.083 46.6875 367.391 48.1667 367.391 51.125V54.7031H362.625V51.125C362.635 48.1667 361.958 46.6875 360.594 46.6875C359.115 46.6875 358.375 48.3594 358.375 51.7031C358.375 54.6719 359.891 57.7708 362.922 61H356.422C354.411 57.7083 353.406 54.6094 353.406 51.7031ZM379.75 61.5L380.328 57.4844H385.172L384.719 62.2344C384.719 64.0156 385.521 64.9062 387.125 64.9062C388.542 64.9167 389.25 64.0104 389.25 62.1875V48.9375C389.25 47.4375 388.542 46.6875 387.125 46.6875C385.958 46.6875 385.375 47.3594 385.375 48.7031L386.047 53.2344H381.172L380.609 49.6406C380.609 45.3385 382.781 43.1875 387.125 43.1875C391.75 43.1875 394.062 45.3802 394.062 49.7656V61.5312C394.062 66.125 391.745 68.4219 387.109 68.4219C382.203 68.4219 379.75 66.1146 379.75 61.5ZM397.5 52.375C397.5 49.8333 397.995 47.8073 398.984 46.2969C399.974 44.7865 401.453 43.7812 403.422 43.2812C403.589 42.8125 403.688 42.2917 403.719 41.7188C403.719 40.7708 403.339 40.0208 402.578 39.4688C400.818 38.2083 399.938 36.6094 399.938 34.6719H404.953C405.005 35.724 405.526 36.7292 406.516 37.6875C407.641 38.9271 408.208 40.1615 408.219 41.3906C408.198 42.0677 408.078 42.7708 407.859 43.5C410.891 45.0417 412.406 47.9896 412.406 52.3438C412.406 58.4167 409.958 61.4531 405.062 61.4531C400.021 61.4531 397.5 58.4271 397.5 52.375ZM402.469 52.375C402.469 56.0938 403.333 57.9531 405.062 57.9531C406.646 57.9531 407.438 56.0938 407.438 52.375C407.438 48.5938 406.625 46.599 405 46.3906C403.312 46.599 402.469 48.5938 402.469 52.375ZM415.531 51.75C415.531 46.0417 418.016 43.1875 422.984 43.1875C427.953 43.1875 430.438 46.0573 430.438 51.7969C430.438 54.474 429.859 57.5365 428.703 60.9844H423.625C424.854 57.6719 425.469 54.6094 425.469 51.7969C425.469 48.3906 424.641 46.6875 422.984 46.6875C421.328 46.6875 420.5 48.4062 420.5 51.8438C420.5 54.6458 421.104 57.6979 422.312 61H417.234C416.672 59.25 416.245 57.6094 415.953 56.0781C415.672 54.5469 415.531 53.1042 415.531 51.75Z" fill="#717276"/>
</svg>
