<svg width="533" height="100" viewBox="0 0 533 100" fill="none" xmlns="http://www.w3.org/2000/svg">
<rect width="100" height="100" fill="#A62B28"/>
<g clip-path="url(#clip0_222_3)">
<path d="M51.7394 46.8437L31.7954 66.7969C31.0616 67.5312 31.0616 68.7187 31.7954 69.4453C32.5291 70.1719 33.7156 70.1797 34.4416 69.4453L40.2804 63.6016C40.858 63.9609 41.4747 64.2422 42.1382 64.4219C45.6352 65.375 51.0759 65.5078 56.3839 61.9844C57.3363 61.3515 56.8367 60 55.697 60H54.4403C54.0422 60 53.7221 59.6797 53.7221 59.2812C53.7221 58.9609 53.9329 58.6875 54.2295 58.5937L61.8559 56.3047C62.1213 56.2266 62.3555 56.0625 62.5116 55.8281C62.855 55.3281 63.1829 54.8203 63.4951 54.2969C63.9791 53.4922 63.378 52.5 62.4413 52.5H59.4282C59.0301 52.5 58.7101 52.1797 58.7101 51.7812C58.7101 51.4609 58.9209 51.1875 59.2175 51.0937L65.5325 49.1953C65.8915 49.0859 66.1882 48.8203 66.3287 48.4687C68.6002 42.7344 69.6384 36.7265 69.9584 32.875C70.0209 32.1015 69.7242 31.3437 69.1778 30.7969C68.6314 30.25 67.8742 29.9531 67.1014 30.0156C60.5601 30.5469 47.8365 33.164 40.7253 40.2812C34.4728 46.5391 34.4259 53.6172 35.5656 57.8437C35.7295 58.4609 36.5023 58.5937 36.9551 58.1406L49.7958 45.2969C50.2797 44.8125 51.0759 44.8125 51.5599 45.2969C51.9814 45.7187 52.0361 46.3594 51.7316 46.8437H51.7394Z" fill="white"/>
</g>
<path d="M141.562 61.5156L142.141 57.5H147.141L146.531 62.1562C146.542 63.9792 147.354 64.901 148.969 64.9219C150.365 64.9219 151.062 63.9948 151.062 62.1406V47.4688C150.177 46.9271 149.203 46.6562 148.141 46.6562C147.401 46.6562 147.01 47.375 146.969 48.8125L147.547 52.8906H142.609L142.156 49.4688C142.156 45.2708 144.109 43.1719 148.016 43.1719C149.161 43.2448 150.177 43.4375 151.062 43.75V34.8125H155.875V61.5156C155.875 66.1198 153.573 68.4219 148.969 68.4219C144.031 68.4219 141.562 66.1198 141.562 61.5156ZM159.469 53.875L159.984 50.4688H164.891L164.359 53.9531C164.38 56.6198 165.193 57.9531 166.797 57.9531C168.339 57.9531 169.109 56.6562 169.109 54.0625C169.109 52.1458 168.156 50.3021 166.25 48.5312C164.354 46.7604 163.406 44.5312 163.406 41.8438H168.469C168.479 43.8021 169.411 45.6667 171.266 47.4375C173.13 49.1979 174.062 51.4062 174.062 54.0625C174.062 58.9896 171.625 61.4531 166.75 61.4531C161.896 61.4531 159.469 58.9271 159.469 53.875ZM177.188 50.9688C177.188 45.7812 179.521 43.1875 184.188 43.1875C185.948 43.1875 187.422 43.7552 188.609 44.8906C189.734 43.6198 191.125 43 192.781 43.0312C194.646 43.0312 196.094 43.6562 197.125 44.9062C198.177 43.7604 199.615 43.1875 201.438 43.1875C206.104 43.1875 208.438 45.5625 208.438 50.3125C208.427 51.7083 208.146 53.0781 207.594 54.4219C207.042 55.7656 206.198 57.1979 205.062 58.7188H199.234C202.068 55.6042 203.484 52.8021 203.484 50.3125C203.484 47.8854 202.807 46.6719 201.453 46.6719C200.13 46.6719 199.458 47.1927 199.438 48.2344L199.25 54.1094H194.781L194.562 48.25C194.562 47.1458 193.969 46.5938 192.781 46.5938C191.646 46.5938 191.078 47.1406 191.078 48.2344L190.906 54.1094H186.438L186.25 48.2344C186.25 47.1927 185.562 46.6719 184.188 46.6719C182.833 46.6719 182.156 48.125 182.156 51.0312C182.156 53.2604 183.052 55.1458 184.844 56.6875C186.635 58.2188 189.234 59.4896 192.641 60.5C197.339 61.6354 200.109 64.2031 200.953 68.2031H196.062C195.812 67.0365 195.151 65.9844 194.078 65.0469C193.016 64.1198 191.583 63.6458 189.781 63.625C188.354 63.6146 187.089 63.9271 185.984 64.5625C184.88 65.2083 183.891 66.0312 183.016 67.0312L180.078 63.6094C181.391 62.5052 182.792 61.724 184.281 61.2656C179.552 58.8906 177.188 55.4583 177.188 50.9688ZM211.562 61.5L212.141 57.4844H216.984L216.531 62.2344C216.531 64.0156 217.333 64.9062 218.938 64.9062C220.354 64.9167 221.062 64.0104 221.062 62.1875V48.9375C221.062 47.4375 220.354 46.6875 218.938 46.6875C217.771 46.6875 217.188 47.3594 217.188 48.7031L217.859 53.2344H212.984L212.422 49.6406C212.422 45.3385 214.594 43.1875 218.938 43.1875C223.562 43.1875 225.875 45.3802 225.875 49.7656V61.5312C225.875 66.125 223.557 68.4219 218.922 68.4219C214.016 68.4219 211.562 66.1146 211.562 61.5ZM229.312 52.375C229.312 49.8333 229.807 47.8073 230.797 46.2969C231.786 44.7865 233.266 43.7812 235.234 43.2812C235.401 42.8125 235.5 42.2917 235.531 41.7188C235.531 40.7708 235.151 40.0208 234.391 39.4688C232.63 38.2083 231.75 36.6094 231.75 34.6719H236.766C236.818 35.724 237.339 36.7292 238.328 37.6875C239.453 38.9271 240.021 40.1615 240.031 41.3906C240.01 42.0677 239.891 42.7708 239.672 43.5C242.703 45.0417 244.219 47.9896 244.219 52.3438C244.219 58.4167 241.771 61.4531 236.875 61.4531C231.833 61.4531 229.312 58.4271 229.312 52.375ZM234.281 52.375C234.281 56.0938 235.146 57.9531 236.875 57.9531C238.458 57.9531 239.25 56.0938 239.25 52.375C239.25 48.5938 238.438 46.599 236.812 46.3906C235.125 46.599 234.281 48.5938 234.281 52.375ZM247.344 51.75C247.344 46.0417 249.828 43.1875 254.797 43.1875C259.766 43.1875 262.25 46.0573 262.25 51.7969C262.25 54.474 261.672 57.5365 260.516 60.9844H255.438C256.667 57.6719 257.281 54.6094 257.281 51.7969C257.281 48.3906 256.453 46.6875 254.797 46.6875C253.141 46.6875 252.312 48.4062 252.312 51.8438C252.312 54.6458 252.917 57.6979 254.125 61H249.047C248.484 59.25 248.057 57.6094 247.766 56.0781C247.484 54.5469 247.344 53.1042 247.344 51.75ZM276.531 50.9688C276.531 45.7812 278.865 43.1875 283.531 43.1875C285.292 43.1875 286.766 43.7552 287.953 44.8906C289.078 43.6198 290.469 43 292.125 43.0312C293.99 43.0312 295.438 43.6562 296.469 44.9062C297.521 43.7604 298.958 43.1875 300.781 43.1875C305.448 43.1875 307.781 45.5625 307.781 50.3125C307.771 51.7083 307.49 53.0781 306.938 54.4219C306.385 55.7656 305.542 57.1979 304.406 58.7188H298.578C301.411 55.6042 302.828 52.8021 302.828 50.3125C302.828 47.8854 302.151 46.6719 300.797 46.6719C299.474 46.6719 298.802 47.1927 298.781 48.2344L298.594 54.1094H294.125L293.906 48.25C293.906 47.1458 293.312 46.5938 292.125 46.5938C290.99 46.5938 290.422 47.1406 290.422 48.2344L290.25 54.1094H285.781L285.594 48.2344C285.594 47.1927 284.906 46.6719 283.531 46.6719C282.177 46.6719 281.5 48.125 281.5 51.0312C281.5 53.2604 282.396 55.1458 284.188 56.6875C285.979 58.2188 288.578 59.4896 291.984 60.5C296.682 61.6354 299.453 64.2031 300.297 68.2031H295.406C295.156 67.0365 294.495 65.9844 293.422 65.0469C292.359 64.1198 290.927 63.6458 289.125 63.625C287.698 63.6146 286.432 63.9271 285.328 64.5625C284.224 65.2083 283.234 66.0312 282.359 67.0312L279.422 63.6094C280.734 62.5052 282.135 61.724 283.625 61.2656C278.896 58.8906 276.531 55.4583 276.531 50.9688ZM310.906 51.75C310.906 46.0417 313.391 43.1875 318.359 43.1875C323.328 43.1875 325.812 46.0573 325.812 51.7969C325.812 54.474 325.234 57.5365 324.078 60.9844H319C320.229 57.6719 320.844 54.6094 320.844 51.7969C320.844 48.3906 320.016 46.6875 318.359 46.6875C316.703 46.6875 315.875 48.4062 315.875 51.8438C315.875 54.6458 316.479 57.6979 317.688 61H312.609C312.047 59.25 311.62 57.6094 311.328 56.0781C311.047 54.5469 310.906 53.1042 310.906 51.75ZM328.938 56.0312C328.938 49.1667 331.703 45.0729 337.234 43.75L336.094 39.5469H341.156L340.016 43.7969C343.047 44.4427 345.172 45.7917 346.391 47.8438C347.609 49.8854 348.219 52.6458 348.219 56.125C348.219 57.7292 348.01 59.2344 347.594 60.6406C347.177 62.0365 346.339 63.6823 345.078 65.5781C343.828 67.474 341.682 68.4219 338.641 68.4219C335.568 68.4219 333.182 67.1823 331.484 64.7031C329.786 62.2344 328.938 59.3438 328.938 56.0312ZM333.906 56.0312C333.896 59.8229 334.354 62.2448 335.281 63.2969C336.219 64.3594 337.333 64.8906 338.625 64.8906C339.792 64.8906 340.87 64.3854 341.859 63.375C342.849 62.3646 343.344 59.9167 343.344 56.0312C343.344 53.5104 343.203 51.6667 342.922 50.5C342.651 49.3333 341.688 48.3385 340.031 47.5156L341.125 55.7812H336.141L337.219 47.5156C335.5 48.3281 334.516 49.3073 334.266 50.4531C334.026 51.5885 333.906 53.4479 333.906 56.0312ZM351.344 61.5L351.922 57.4844H356.766L356.312 62.2344C356.312 64.0156 357.115 64.9062 358.719 64.9062C360.135 64.9167 360.844 64.0104 360.844 62.1875V48.9375C360.844 47.4375 360.135 46.6875 358.719 46.6875C357.552 46.6875 356.969 47.3594 356.969 48.7031L357.641 53.2344H352.766L352.203 49.6406C352.203 45.3385 354.375 43.1875 358.719 43.1875C363.344 43.1875 365.656 45.3802 365.656 49.7656V61.5312C365.656 66.125 363.339 68.4219 358.703 68.4219C353.797 68.4219 351.344 66.1146 351.344 61.5ZM369.094 51.7031C369.094 49.7031 369.422 47.7917 370.078 45.9688C370.734 44.1354 371.724 42.3594 373.047 40.6406C375.599 37.349 379.599 35.2865 385.047 34.4531V38.4844C383.328 38.5781 381.693 39.0312 380.141 39.8438C378.599 40.6562 377.167 41.7708 375.844 43.1875H375.859C377.995 43.1875 379.599 43.8906 380.672 45.2969C381.755 43.8906 383.292 43.1875 385.281 43.1875C389.969 43.1875 392.312 46.026 392.312 51.7031C392.312 54.6615 391.255 57.7552 389.141 60.9844H382.812C385.833 57.7552 387.344 54.6615 387.344 51.7031C387.333 48.3594 386.604 46.6875 385.156 46.6875C383.771 46.6875 383.078 48.1667 383.078 51.125V54.7031H378.312V51.125C378.323 48.1667 377.646 46.6875 376.281 46.6875C374.802 46.6875 374.062 48.3594 374.062 51.7031C374.062 54.6719 375.578 57.7708 378.609 61H372.109C370.099 57.7083 369.094 54.6094 369.094 51.7031ZM395.438 53.875L395.953 50.4688H400.859L400.328 53.9531C400.349 56.6198 401.161 57.9531 402.766 57.9531C404.307 57.9531 405.078 56.6562 405.078 54.0625C405.078 52.1458 404.125 50.3021 402.219 48.5312C400.323 46.7604 399.375 44.5312 399.375 41.8438H404.438C404.448 43.8021 405.38 45.6667 407.234 47.4375C409.099 49.1979 410.031 51.4062 410.031 54.0625C410.031 58.9896 407.594 61.4531 402.719 61.4531C397.865 61.4531 395.438 58.9271 395.438 53.875ZM413.156 56.0312C413.156 49.1667 415.922 45.0729 421.453 43.75L420.312 39.5469H425.375L424.234 43.7969C427.266 44.4427 429.391 45.7917 430.609 47.8438C431.828 49.8854 432.438 52.6458 432.438 56.125C432.438 57.7292 432.229 59.2344 431.812 60.6406C431.396 62.0365 430.557 63.6823 429.297 65.5781C428.047 67.474 425.901 68.4219 422.859 68.4219C419.786 68.4219 417.401 67.1823 415.703 64.7031C414.005 62.2344 413.156 59.3438 413.156 56.0312ZM418.125 56.0312C418.115 59.8229 418.573 62.2448 419.5 63.2969C420.438 64.3594 421.552 64.8906 422.844 64.8906C424.01 64.8906 425.089 64.3854 426.078 63.375C427.068 62.3646 427.562 59.9167 427.562 56.0312C427.562 53.5104 427.422 51.6667 427.141 50.5C426.87 49.3333 425.906 48.3385 424.25 47.5156L425.344 55.7812H420.359L421.438 47.5156C419.719 48.3281 418.734 49.3073 418.484 50.4531C418.245 51.5885 418.125 53.4479 418.125 56.0312ZM434.938 45.9219L435.453 41.6562L438.125 43.1875H439.297C440.005 43.1875 440.766 43.7292 441.578 44.8125C442.391 43.7292 443.818 43.1875 445.859 43.1875C449.318 43.1875 451.047 44.9531 451.047 48.4844V61.5469C451.047 66.1302 448.698 68.4219 444 68.4219C438.927 68.4219 436.391 66.1042 436.391 61.4688L436.828 57.5H441.766L441.359 62.25C441.37 64.0104 442.25 64.8906 444 64.8906C445.49 64.8906 446.234 63.9844 446.234 62.1719V47.7031C446.234 47.0052 445.87 46.6562 445.141 46.6562C444.266 46.6562 443.828 47.0677 443.828 47.8906L443.672 53.6719H439.734L439.578 47.8906C439.578 47.1927 439.208 46.8438 438.469 46.8438H437.469L434.938 45.9219ZM454.5 51.7031C454.5 49.7031 454.828 47.7917 455.484 45.9688C456.141 44.1354 457.13 42.3594 458.453 40.6406C461.005 37.349 465.005 35.2865 470.453 34.4531V38.4844C468.734 38.5781 467.099 39.0312 465.547 39.8438C464.005 40.6562 462.573 41.7708 461.25 43.1875H461.266C463.401 43.1875 465.005 43.8906 466.078 45.2969C467.161 43.8906 468.698 43.1875 470.688 43.1875C475.375 43.1875 477.719 46.026 477.719 51.7031C477.719 54.6615 476.661 57.7552 474.547 60.9844H468.219C471.24 57.7552 472.75 54.6615 472.75 51.7031C472.74 48.3594 472.01 46.6875 470.562 46.6875C469.177 46.6875 468.484 48.1667 468.484 51.125V54.7031H463.719V51.125C463.729 48.1667 463.052 46.6875 461.688 46.6875C460.208 46.6875 459.469 48.3594 459.469 51.7031C459.469 54.6719 460.984 57.7708 464.016 61H457.516C455.505 57.7083 454.5 54.6094 454.5 51.7031ZM480.844 53.875L481.359 50.4688H486.266L485.734 53.9531C485.755 56.6198 486.568 57.9531 488.172 57.9531C489.714 57.9531 490.484 56.6562 490.484 54.0625C490.484 52.1458 489.531 50.3021 487.625 48.5312C485.729 46.7604 484.781 44.5312 484.781 41.8438H489.844C489.854 43.8021 490.786 45.6667 492.641 47.4375C494.505 49.1979 495.438 51.4062 495.438 54.0625C495.438 58.9896 493 61.4531 488.125 61.4531C483.271 61.4531 480.844 58.9271 480.844 53.875ZM497.625 39.4531V34.5156H500.281C501.25 34.5156 502.135 35.151 502.938 36.4219C504.146 35.151 505.333 34.5156 506.5 34.5156C510.604 34.5156 512.656 36.0885 512.656 39.2344V54.0781C512.656 58.9948 510.411 61.4531 505.922 61.4531C500.682 61.4531 498.062 58.5573 498.062 52.7656C498.073 46.6823 500.495 43.6406 505.328 43.6406C506.255 43.6927 507.12 43.8125 507.922 44V39.1875C507.922 38.3021 507.562 37.8594 506.844 37.8594C505.75 37.8594 505.203 38.349 505.203 39.3281V40.2656C505.214 41.349 504.578 41.8906 503.297 41.8906C501.974 41.8906 501.312 41.349 501.312 40.2656V39.2969C501.323 38.6615 501.068 38.2917 500.547 38.1875L497.625 39.4531ZM503.016 52.7656C503.016 56.224 503.865 57.9531 505.562 57.9531C507.083 57.9531 507.844 56.8385 507.844 54.6094V47.5C507.021 47.25 506.172 47.125 505.297 47.125C503.776 47.1875 503.016 49.0677 503.016 52.7656ZM516.25 51.75C516.25 46.0417 518.734 43.1875 523.703 43.1875C528.672 43.1875 531.156 46.0573 531.156 51.7969C531.156 54.474 530.578 57.5365 529.422 60.9844H524.344C525.573 57.6719 526.188 54.6094 526.188 51.7969C526.188 48.3906 525.359 46.6875 523.703 46.6875C522.047 46.6875 521.219 48.4062 521.219 51.8438C521.219 54.6458 521.823 57.6979 523.031 61H517.953C517.391 59.25 516.964 57.6094 516.672 56.0781C516.391 54.5469 516.25 53.1042 516.25 51.75Z" fill="#717276"/>
<defs>
<clipPath id="clip0_222_3">
<rect x="30" y="30" width="39.9662" height="40" fill="white"/>
</clipPath>
</defs>
</svg>
